<?xml version="1.0" encoding="utf-8" ?>
<svg baseProfile="full" height="200mm" version="1.1" viewBox="0,0,200,200" width="200mm" xmlns="http://www.w3.org/2000/svg" xmlns:ev="http://www.w3.org/2001/xml-events" xmlns:xlink="http://www.w3.org/1999/xlink"><defs /><rect fill="#1a1a1a" height="200" width="200" x="0" y="0" /><rect fill="#1a1a1a" height="200" width="180" x="10" y="0" /><text alignment-baseline="middle" fill="#e1ed5e" style="dominant-baseline: central; font-size:9.0px; font-family:Arial;" text-anchor="middle" x="100.0" y="100.0">2024</text><line stroke="#e1ed5e" stroke-width="0.3" x1="100.0" x2="100.0" y1="15.0" y2="10.0" /><path d="M 100.0 14.0 a86.0,86.0 0 0,1 42.35913384403234,11.155469271406648" fill="none" id="id73" stroke="none" /><text fill="#e1ed5e" style="font-size:6.75px; font-family:Arial;" text-anchor="middle"><textPath startOffset="22.145653131862478" xlink:href="#id73">January</textPath></text><line stroke="#e1ed5e" stroke-width="0.3" x1="143.13028292997686" x2="145.6673583964461" y1="26.7553504044142" y2="22.446841604673864" /><path d="M 143.63769802327073 25.89364864446614 a86.0,86.0 0 0,1 29.32050498858742,28.57503671076993" fill="none" id="id74" stroke="none" /><text fill="#e1ed5e" style="font-size:6.75px; font-family:Arial;" text-anchor="middle"><textPath startOffset="20.669276256404974" xlink:href="#id74">February</textPath></text><line stroke="#e1ed5e" stroke-width="0.3" x1="172.87174338648825" x2="177.1583165268699" y1="56.24261187166439" y2="53.66864786411523" /><path d="M 173.72905801456457 55.72781907015455 a86.0,86.0 0 0,1 12.242430191666344,42.057860355516425" fill="none" id="id75" stroke="none" /><text fill="#e1ed5e" style="font-size:6.75px; font-family:Arial;" text-anchor="middle"><textPath startOffset="22.145653131862474" xlink:href="#id75">March</textPath></text><line stroke="#e1ed5e" stroke-width="0.3" x1="184.99686870605535" x2="189.99668451229388" y1="99.2704041080226" y2="99.22748670261217" /><path d="M 185.99683186730306 99.26182062694052 a86.0,86.0 0 0,1 -10.086455211305974,41.156179273409016" fill="none" id="id76" stroke="none" /><text fill="#e1ed5e" style="font-size:6.75px; font-family:Arial;" text-anchor="middle"><textPath startOffset="21.40746469413373" xlink:href="#id76">April</textPath></text><line stroke="#e1ed5e" stroke-width="0.3" x1="174.33088141563837" x2="178.70328620479359" y1="141.23008692659167" y2="143.65538615756765" /><path d="M 175.20536237346943 141.71514677278685 a86.0,86.0 0 0,1 -30.301960400862466,31.631185727798858" fill="none" id="id77" stroke="none" /><text fill="#e1ed5e" style="font-size:6.75px; font-family:Arial;" text-anchor="middle"><textPath startOffset="22.145653131862474" xlink:href="#id77">May</textPath></text><line stroke="#e1ed5e" stroke-width="0.3" x1="143.1302829299769" x2="145.66735839644613" y1="173.24464959558577" y2="177.55315839532614" /><path d="M 143.63769802327073 174.10635135553383 a86.0,86.0 0 0,1 -40.68552437913181,11.842963189579606" fill="none" id="id78" stroke="none" /><text fill="#e1ed5e" style="font-size:6.75px; font-family:Arial;" text-anchor="middle"><textPath startOffset="21.407464694133747" xlink:href="#id78">June</textPath></text><path d="M 104.9986988182912 120.39639698878246 l 1.8731876198845585 7.6432447159716554 a28.869435916729827,28.869435916729827 0 0,0 -0.4823503239451225,0.11383336307920976 l -1.7417051421995569 -7.674274222697091" fill="#ff0300" stroke="none" /><path d="M 104.29559338865022 120.5559693870025 l 2.0621153756990553 9.867968566889099 a31.081127092731535,31.081127092731535 0 0,0 -0.5232041743304541,0.1046554880535871 l -1.8924147158376428 -9.901913451605548" fill="#ff2703" stroke="none" /><path d="M 103.58742460773223 120.69131181640829 l 5.024736985550325 28.98134766076217 a50.413712686567166,50.413712686567166 0 0,0 -0.853966274153842,0.14051982543973085 l -4.52649320834341 -29.063333484697573" fill="#c1ff1e" stroke="none" /><path d="M 101.08105385017728 120.97215588758144 l 1.2161855814494416 23.59367537352912 a44.625,44.625 0 0,0 -0.7653702587232372,0.03286829209510929 l -0.8109895621253748 -23.61107623405006" fill="#fff016" stroke="none" /><line stroke="#e1ed5e" stroke-width="0.3" x1="101.45913802915013" x2="101.54496967792366" y1="184.9874750549273" y2="189.98673829345242" /><path d="M 101.47630435890484 185.9873277026323 a86.0,86.0 0 0,1 -42.54439059252881,-10.42667462771756" fill="none" id="id79" stroke="none" /><text fill="#e1ed5e" style="font-size:6.75px; font-family:Arial;" text-anchor="middle"><textPath startOffset="22.145653131862474" xlink:href="#id79">July</textPath></text><path d="M 99.63950707515114 120.99690560180557 l -0.288528852164471 16.80535914771378 a37.80783582089552,37.80783582089552 0 0,0 -0.6488305073166644,-0.01671157230821684 l 0.5769726735518793 -16.797929858055515" fill="#ff8f0d" stroke="none" /><path d="M 99.27912038922189 120.98762331915562 l -0.3601035742273093 10.48402265616402 a31.490205223880597,31.490205223880597 0 0,0 -0.5400933673826043,-0.023193933074142293 l 0.5400227022107523 -10.47629615466405" fill="#ff2d04" stroke="none" /><path d="M 98.55909050195518 120.95050786540614 l -2.4073404020506284 35.00220110722237 a56.08488805970149,56.08488805970149 0 0,0 -0.9599356044388982,-0.07430508684063564 l 3.0078450012647626 -34.955718253386685" fill="#7bff26" stroke="none" /><path d="M 97.12497278360702 120.80226474461374 l -1.613179916660798 11.67216627228094 a32.783115671641795,32.783115671641795 0 0,0 -0.5568054438111375,-0.08183122559171668 l 1.8133104660796204 -11.642753973390342" fill="#ff4206" stroke="none" /><path d="M 95.70440661134978 120.55596938700252 l -6.016635702479752 28.791779883007724 a50.413712686567166,50.413712686567166 0 0,0 -0.8456002059987429,-0.18429462919111453 l 6.509998325097631 -28.684253795682892" fill="#c1ff1e" stroke="none" /><path d="M 94.30408787586889 120.21278271476187 l -4.152383698701928 14.735344861554482 a36.30923507462687,36.30923507462687 0 0,0 -0.5984799132935559,-0.1742087804200436 l 4.40472362437709 -14.661892386831923" fill="#ff780b" stroke="none" /><path d="M 93.61358852112213 120.00534299687104 l -4.477041255948435 14.024267968422185 a35.721548507462686,35.721548507462686 0 0,0 -0.5825627685628169,-0.19149995319348292 l 4.717126762158995 -13.94534709382668" fill="#ff6f0a" stroke="none" /><path d="M 92.25597844496254 119.51999308798841 l -3.2724270190596725 8.248653795577189 a29.874067164179102,29.874067164179102 0 0,0 -0.47506245026546423,-0.19320376279531787 l 3.4135439305155777 -8.19126277620258" fill="#ff1302" stroke="none" /><path d="M 91.26138138417905 119.09545874513695 l -12.239772249678325 26.746111292745468 a50.413712686567166,50.413712686567166 0 0,0 -0.7838402937049634,-0.3668768358705689 l 12.697101257254777 -26.532058225304375" fill="#c1ff1e" stroke="none" /><path d="M 89.97174638481275 118.45085714620012 l -7.030067716243674 12.9345327848595 a35.721548507462686,35.721548507462686 0 0,0 -0.5362583702400624,-0.29745347827206525 l 7.251070274639838 -12.811946391154287" fill="#ff6f0a" stroke="none" /><line stroke="#e1ed5e" stroke-width="0.3" x1="58.13341422392154" x2="55.67067388415222" y1="173.97424548756322" y2="178.32567169271397" /><path d="M 57.64086615596768 174.84453072859336 a86.0,86.0 0 0,1 -31.369924170532247,-30.572349798747897" fill="none" id="id80" stroke="none" /><text fill="#e1ed5e" style="font-size:6.75px; font-family:Arial;" text-anchor="middle"><textPath startOffset="22.145653131862474" xlink:href="#id80">August</textPath></text><path d="M 87.83215693770417 117.11559508785305 l -11.713819067434041 16.476953480097333 a41.21641791044776,41.21641791044776 0 0,0 -0.5731417482958965,-0.41491042633495373 l 11.994941826103892 -16.273442282389315" fill="#ffc011" stroke="none" /><path d="M 85.86807049272751 115.53346607816431 l -15.878646540587424 17.45341407756428 a44.595615671641795,44.595615671641795 0 0,0 -0.5618415350781284,-0.5200321370612344 l 16.17591784697952 -17.17826419437067" fill="#fff016" stroke="none" /><path d="M 85.08716467003676 114.78537596483092 l -25.061075416911184 24.84687947821167 a56.290578358208954,56.290578358208954 0 0,0 -0.6744501183704747,-0.692045237260594 l 25.483912336432468 -24.413011548883336" fill="#78ff26" stroke="none" /><path d="M 83.8745106332314 113.45245675266167 l -18.818085072600297 15.69871585595127 a45.50652985074627,45.50652985074627 0 0,0 -0.4952696258476332,-0.6041484138193989 l 19.08480151768656 -15.373365160433377" fill="#fffc17" stroke="none" /><path d="M 83.20337586046588 112.60449989151573 l -16.498922778852073 12.381099240453413 a41.627798507462686,41.627798507462686 0 0,0 -0.4240048585675003,-0.5752440231377152 l 16.709029657003402 -12.096048908046818" fill="#ffc612" stroke="none" /><path d="M 82.576782715395 111.72311816256416 l -22.185346635714385 14.927291317070969 a47.73973880597015,47.73973880597015 0 0,0 -0.4516533044311465,-0.6838606683653995 l 22.43832437906626 -14.544250770366508" fill="#e4ff1b" stroke="none" /><path d="M 82.37810715431573 111.42229804090323 l -13.808199617886931 8.950308166379392 a37.45522388059702,37.45522388059702 0 0,0 -0.3450915798612859,-0.5425412817298314 l 13.959808889374106 -8.711953209970888" fill="#ff890c" stroke="none" /><line stroke="#e1ed5e" stroke-width="0.3" x1="26.387840678322732" x2="22.057713659400548" y1="142.50000000000003" y2="145.00000000000006" /><path d="M 25.521815274538298 143.00000000000003 a86.0,86.0 0 0,1 -11.493303480769221,-40.785679425670985" fill="none" id="id81" stroke="none" /><text fill="#e1ed5e" style="font-size:6.75px; font-family:Arial;" text-anchor="middle"><textPath startOffset="21.40746469413373" xlink:href="#id81">September</textPath></text><path d="M 81.4637452351635 109.86951160357371 l -15.977144965213553 8.5069297777072 a39.10074626865672,39.10074626865672 0 0,0 -0.31037042381156843,-0.5951762115330339 l 16.12082345800007 -8.231407323069662" fill="#ffa20e" stroke="none" /><path d="M 81.1358732173502 109.22738970284198 l -6.915673344758746 3.3828023817321786 a28.698694029850746,28.698694029850746 0 0,0 -0.212672002881277,-0.44440269074125155 l 6.972724605599935 -3.2635871889258223" fill="#ff0000" stroke="none" /><path d="M 80.83023694016515 108.57439118712176 l -7.403248047361591 3.3113786860712793 a29.11007462686567,29.11007462686567 0 0,0 -0.20011945086080743,-0.45791246670997 l 7.459001380239366 -3.18380414958546" fill="#ff0701" stroke="none" /><path d="M 80.5471966667186 107.91128576633889 l -21.312796189308763 8.667728668437533 a44.00792910447761,44.00792910447761 0 0,0 -0.2785939241498148,-0.7022386798784753 l 21.4584487884247 -8.300588971345492" fill="#ffe815" stroke="none" /><path d="M 80.16572619554312 106.89939002012753 l -13.904343996314692 4.8366526120576845 a35.721548507462686,35.721548507462686 0 0,0 -0.19649331507722778,-0.5808975714518342 l 13.985322732964287 -4.597253366131689" fill="#ff6f0a" stroke="none" /><path d="M 79.83685265289637 105.86919833188381 l -19.80577813106355 5.765173361449298 a41.627798507462686,41.627798507462686 0 0,0 -0.1938299480797836,-0.6878341060691551 l 19.90182657121791 -5.4243313314771475" fill="#ffc612" stroke="none" /><path d="M 79.17382384314188 102.69636545807758 l -14.657975662639418 1.8977684124249399 a35.7803171641791,35.7803171641791 0 0,0 -0.07363574575254532,-0.6098096073688537 l 14.688393494651624 -1.6458651281326868" fill="#ff700a" stroke="none" /><line stroke="#e1ed5e" stroke-width="0.3" x1="15.003131293944662" x2="10.003315487706104" y1="100.72959589197737" y2="100.7725132973878" /><path d="M 14.003168132696942 100.73817937305945 a86.0,86.0 0 0,1 10.791469493833604,-42.45332614584628" fill="none" id="id82" stroke="none" /><text fill="#e1ed5e" style="font-size:6.75px; font-family:Arial;" text-anchor="middle"><textPath startOffset="22.145653131862435" xlink:href="#id82">October</textPath></text><path d="M 79.407916724674 95.88100663000787 l -43.24913758805642 -8.651038780351943 a65.10587686567163,65.10587686567163 0 0,0 0.22862173327912022,-1.0940377557396854 l 43.094258143952935 9.392192987377038" fill="#33ff50" stroke="none" /><path d="M 80.28708602549916 92.7611449362534 l -27.61095180290392 -10.139123953559256 a50.413712686567166,50.413712686567166 0 0,0 0.3052893985107734,-0.8098164001122836 l 27.432831720578708 10.611608633865684" fill="#c1ff1e" stroke="none" /><path d="M 81.29705330413844 90.45014215332179 l -13.477636494918888 -6.881777226267649 a36.13292910447761,36.13292910447761 0 0,0 0.2868127488579508,-0.5500012636135957 l 13.357515677085997 7.112124732985731" fill="#ff750a" stroke="none" /><line stroke="#e1ed5e" stroke-width="0.3" x1="26.387840678322718" x2="22.05771365940052" y1="57.49999999999999" y2="54.99999999999999" /><path d="M 25.521815274538284 56.99999999999999 a86.0,86.0 0 0,1 29.574782752854787,-30.34633250058573" fill="none" id="id83" stroke="none" /><text fill="#e1ed5e" style="font-size:6.75px; font-family:Arial;" text-anchor="middle"><textPath startOffset="21.40746469413373" xlink:href="#id83">November</textPath></text><path d="M 82.18462484594161 88.88188828441811 l -27.894689548588616 -17.408349360638244 a53.88106343283582,53.88106343283582 0 0,0 0.4964301205065203,-0.7804706042876053 l 27.591741736456207 17.884633639604523" fill="#95ff23" stroke="none" /><path d="M 87.25179093698888 83.31218511350988 l -38.244627189033366 -50.06344465947034 a84.0,84.0 0 0,0 1.1533880443569906,-0.8655238909439964 l 37.37958615576562 50.71258757767834" fill="#4dd2ff" stroke="none" /><line stroke="#e1ed5e" stroke-width="0.3" x1="56.869717070023135" x2="54.33264160355391" y1="26.7553504044142" y2="22.446841604673864" /><path d="M 56.362301976729285 25.89364864446614 a86.0,86.0 0 0,1 42.16139366436587,-11.88097634709845" fill="none" id="id84" stroke="none" /><text fill="#e1ed5e" style="font-size:6.75px; font-family:Arial;" text-anchor="middle"><textPath startOffset="22.145653131862474" xlink:href="#id84">December</textPath></text></svg>