<?xml version="1.0" encoding="utf-8" ?>
<svg baseProfile="full" height="200mm" version="1.1" viewBox="0,0,200,200" width="200mm" xmlns="http://www.w3.org/2000/svg" xmlns:ev="http://www.w3.org/2001/xml-events" xmlns:xlink="http://www.w3.org/1999/xlink"><defs /><rect fill="#1a1a1a" height="200" width="200" x="0" y="0" /><rect fill="#1a1a1a" height="200" width="180" x="10" y="0" /><text alignment-baseline="middle" fill="#e1ed5e" style="dominant-baseline: central; font-size:9.0px; font-family:Arial;" text-anchor="middle" x="100.0" y="100.0">2018</text><line stroke="#e1ed5e" stroke-width="0.3" x1="100.0" x2="100.0" y1="15.0" y2="10.0" /><path d="M 100.0 14.0 a86.0,86.0 0 0,1 42.46469731375804,11.215312516191453" fill="none" id="id1" stroke="none" /><text fill="#e1ed5e" style="font-size:6.75px; font-family:Arial;" text-anchor="middle"><textPath startOffset="22.20632615414155" xlink:href="#id1">January</textPath></text><line stroke="#e1ed5e" stroke-width="0.3" x1="143.23703022742887" x2="145.7803849466894" y1="26.81831364943548" y2="22.513508569990506" /><path d="M 143.74570117128098 25.957352633546492 a86.0,86.0 0 0,1 28.547481713284135,27.462654790039103" fill="none" id="id2" stroke="none" /><text fill="#e1ed5e" style="font-size:6.75px; font-family:Arial;" text-anchor="middle"><textPath startOffset="19.985693538727396" xlink:href="#id2">February</textPath></text><line stroke="#e1ed5e" stroke-width="0.3" x1="172.23445277983987" x2="176.4835382374775" y1="55.19839476539836" y2="52.563006222186495" /><path d="M 173.08426987136738 54.67131705675599 a86.0,86.0 0 0,1 12.851231095245387,41.99856678651699" fill="none" id="id3" stroke="none" /><text fill="#e1ed5e" style="font-size:6.75px; font-family:Arial;" text-anchor="middle"><textPath startOffset="22.20632615414155" xlink:href="#id3">March</textPath></text><path d="M 119.47837535516314 92.15188598940014 l 37.14656228152559 -14.966877399761422 a61.04840207092848,61.04840207092848 0 0,0 0.38433297729486204,0.978085506013626 l -37.398688808702154 14.325242888852012" fill="red" stroke="none" /><path d="M 119.7369772167798 92.82701384747503 l 36.73146061411933 -13.349271038479795 a60.08200655167791,60.08200655167791 0 0,0 0.34489051374141,0.975051925803025 l -36.95580420867055 12.715021486250155" fill="red" stroke="none" /><line stroke="#e1ed5e" stroke-width="0.3" x1="184.98032266829074" x2="189.97916517819016" y1="98.17113171792111" y2="98.06355123074" /><path d="M 185.9800911702706 98.14961562048488 a86.0,86.0 0 0,1 -9.607161424134198,41.387399972396054" fill="none" id="id4" stroke="none" /><text fill="#e1ed5e" style="font-size:6.75px; font-family:Arial;" text-anchor="middle"><textPath startOffset="21.466115282336823" xlink:href="#id4">April</textPath></text><path d="M 120.81339534386255 102.79330883721812 l 54.61925158584575 7.33030030018489 a76.10894615476515,76.10894615476515 0 0,0 -0.18543745029214043,1.2969490954419962 l -54.484980084537014 -8.269394867607295" fill="red" stroke="none" /><path d="M 120.5718875245553 104.21870165774334 l 10.414626756944308 2.1357400049876483 a31.631360959696785,31.631360959696785 0 0,0 -0.1139722539747419,0.5324404272529389 l -10.376320464245122 -2.314694251656756" fill="red" stroke="none" /><path d="M 120.49622156327973 104.57218783832717 l 25.583869254829455 5.707113162449915 a47.212697432679775,47.212697432679775 0 0,0 -0.18376853185901362,0.7916700255793091 l -25.481840157039887 -6.146651845377789" fill="red" stroke="none" /><path d="M 119.41010516605496 108.01547362559984 l 39.52195741499714 16.320736265045973 a63.759227660775565,63.759227660775565 0 0,0 -0.4276392693312588,1.0108129101010845 l -39.23516716447357 -16.998623700813223" fill="red" stroke="none" /><path d="M 119.26925614724726 108.34839909993367 l 11.945290268212494 5.1752932111932 a34.01820338655356,34.01820338655356 0 0,0 -0.23741290417734423,0.5353034237436528 l -11.854436279303878 -5.380144971429541" fill="red" stroke="none" /><path d="M 118.64920377521936 109.65438752849418 l 34.38033498620404 17.798136655963287 a59.71409436094237,59.71409436094237 0 0,0 -0.48040697456682235,0.9087489497850914 l -34.06887550341233 -18.387300620834512" fill="red" stroke="none" /><line stroke="#e1ed5e" stroke-width="0.3" x1="174.80103733775053" x2="179.2010983576182" y1="140.37084112569926" y2="142.7455964860345" /><path d="M 175.68104954172406 140.8457921977663 a86.0,86.0 0 0,1 -30.038265399797805,32.042727171017184" fill="none" id="id5" stroke="none" /><text fill="#e1ed5e" style="font-size:6.75px; font-family:Arial;" text-anchor="middle"><textPath startOffset="22.206326154141568" xlink:href="#id5">May</textPath></text><path d="M 116.93607887273984 112.41649034213515 l 26.739874393952583 19.6040296373931 a54.15627935441714,54.15627935441714 0 0,0 -0.5576516784812333,0.7470655534604873 l -26.398461448776256 -20.061408070362905" fill="red" stroke="none" /><path d="M 115.56566222782051 114.09645910891815 l 20.864935493697462 18.895547500153093 a49.14937385603271,49.14937385603271 0 0,0 -0.5733007462283983,0.6222047317583989 l -20.53658833947334 -19.251903486712827" fill="red" stroke="none" /><line stroke="#e1ed5e" stroke-width="0.3" x1="143.8653032363475" x2="146.44561519142675" y1="172.8068346515853" y2="177.08958963109032" /><path d="M 144.38136562736335 173.6633856474863 a86.0,86.0 0 0,1 -40.68145358897372,12.25698825130547" fill="none" id="id6" stroke="none" /><text fill="#e1ed5e" style="font-size:6.75px; font-family:Arial;" text-anchor="middle"><textPath startOffset="21.466115282336833" xlink:href="#id6">June</textPath></text><path d="M 110.5260780823613 118.17145234162733 l 29.886348049269014 51.593608273970844 a80.62461081172772,80.62461081172772 0 0,0 -1.2068783726269063,0.6852970375682652 l -28.993820909720906 -52.10040847733374" fill="red" stroke="none" /><path d="M 110.21172684928248 118.3499491758327 l 6.929057047863574 12.451159979242467 a35.249323366435235,35.249323366435235 0 0,0 -0.5327300539796168,0.2904869013192559 l -6.7137041820153085 -12.568587532321494" fill="red" stroke="none" /><path d="M 108.92500713936063 119.00905698771935 l 9.992727311424815 21.28315641204313 a44.512280748153465,44.512280748153465 0 0,0 -0.6963670860549603,0.31966797455910495 l -9.624892229602436 -21.452011456936308" fill="red" stroke="none" /><line stroke="#e1ed5e" stroke-width="0.3" x1="102.19456741930631" x2="102.32365962044197" y1="184.97166512339345" y2="189.96999836594603" /><path d="M 102.22038585953345 185.97133177190398 a86.0,86.0 0 0,1 -42.740103519485714,-10.115201625700543" fill="none" id="id7" stroke="none" /><text fill="#e1ed5e" style="font-size:6.75px; font-family:Arial;" text-anchor="middle"><textPath startOffset="22.20632615414155" xlink:href="#id7">July</textPath></text><line stroke="#e1ed5e" stroke-width="0.3" x1="58.666819895761336" x2="56.23545636021788" y1="174.27360380694188" y2="178.64263932499728" /><path d="M 58.180547188652646 175.14741091055294 a86.0,86.0 0 0,1 -31.652253787137756,-30.449443065178592" fill="none" id="id8" stroke="none" /><text fill="#e1ed5e" style="font-size:6.75px; font-family:Arial;" text-anchor="middle"><textPath startOffset="22.20632615414155" xlink:href="#id8">August</textPath></text><path d="M 89.7882731507175 118.34994917583269 l -11.425130335584976 20.530372979960713 a44.49531480702919,44.49531480702919 0 0,0 -0.6660550988485091,-0.3782034680964712 l 11.776834201354694 -20.33066634606961" fill="red" stroke="none" /><path d="M 88.8546689885994 117.79835938074946 l -21.648420572901735 34.57110147630285 a61.78989054393336,61.78989054393336 0 0,0 -0.8965954332507247,-0.5722496264453095 l 22.240297808199383 -34.19333742103374" fill="red" stroke="none" /><path d="M 85.70375840098266 115.38237550388516 l -28.022736963892 30.15171922212188 a62.163089764947834,62.163089764947834 0 0,0 -0.777524576418989,-0.7351980176412658 l 28.537597374701807 -29.664886567734683" fill="red" stroke="none" /><path d="M 84.9287848128048 114.62390073753433 l -32.933956397930935 31.95647486121902 a66.88966953004281,66.88966953004281 0 0,0 -0.7946921108653451,-0.8332315011051229 l 33.47915506017524 -31.3848362435314" fill="red" stroke="none" /><path d="M 84.43433777217949 114.09645910891817 l -8.290511980137195 7.50799171982057 a32.1849241641458,32.1849241641458 0 0,0 -0.3683505570281807,-0.4138457556786092 l 8.418521386813714 -7.364171794401097" fill="red" stroke="none" /><path d="M 83.06392112726016 112.41649034213515 l -50.80823661821951 37.24947102640544 a84.0,84.0 0 0,0 -0.8448808304975701,-1.1734655781954473 l 51.44189724109269 -36.36937184275885" fill="red" stroke="none" /><path d="M 82.85270091963577 112.12312394758628 l -11.577006762626882 8.184932639688297 a35.1781595384642,35.1781595384642 0 0,0 -0.34531399499832083,-0.4974505645298206 l 11.716181664787337 -7.984440812971464" fill="red" stroke="none" /><path d="M 82.6465618267979 111.8261652097733 l -9.44082907225445 6.4338146257451525 a32.424676109631164,32.424676109631164 0 0,0 -0.31034567648089256,-0.463924678084599 l 9.550177854146074 -6.270353033454732" fill="red" stroke="none" /><line stroke="#e1ed5e" stroke-width="0.3" x1="26.63291911575756" x2="22.317208475507996" y1="142.92168965132927" y2="145.44649492493687" /><path d="M 25.769776987707644 143.4266507060508 a86.0,86.0 0 0,1 -11.730757126820373,-40.83630448921669" fill="none" id="id9" stroke="none" /><text fill="#e1ed5e" style="font-size:6.75px; font-family:Arial;" text-anchor="middle"><textPath startOffset="21.46611528233685" xlink:href="#id9">September</textPath></text><line stroke="#e1ed5e" stroke-width="0.3" x1="15.007084014347285" x2="10.007500721073583" y1="101.09737516637583" y2="101.16192664675087" /><path d="M 14.007167355692545 101.11028546245083 a86.0,86.0 0 0,1 10.666146001902534,-42.60595125391555" fill="none" id="id10" stroke="none" /><text fill="#e1ed5e" style="font-size:6.75px; font-family:Arial;" text-anchor="middle"><textPath startOffset="22.20632615414155" xlink:href="#id10">October</textPath></text><line stroke="#e1ed5e" stroke-width="0.3" x1="26.266209847984243" x2="21.928928074336255" y1="57.711370442889674" y2="55.22380399835377" /><path d="M 25.398753493254645 57.213857153982495 a86.0,86.0 0 0,1 29.58750427330803,-30.492523968695096" fill="none" id="id11" stroke="none" /><text fill="#e1ed5e" style="font-size:6.75px; font-family:Arial;" text-anchor="middle"><textPath startOffset="21.46611528233685" xlink:href="#id11">November</textPath></text><path d="M 88.09926311788651 82.69761687909137 l -23.633801072426884 -34.36098829922619 a62.70412533587781,62.70412533587781 0 0,0 0.8945648377129981,-0.6040141716752154 l 23.038831540307346 34.76271438320007" fill="red" stroke="none" /><line stroke="#e1ed5e" stroke-width="0.3" x1="56.762969772571076" x2="54.21961505331055" y1="26.818313649435495" y2="22.513508569990535" /><path d="M 56.25429882871897 25.957352633546506 a86.0,86.0 0 0,1 42.265352541879196,-11.944610805530505" fill="none" id="id12" stroke="none" /><text fill="#e1ed5e" style="font-size:6.75px; font-family:Arial;" text-anchor="middle"><textPath startOffset="22.20632615414155" xlink:href="#id12">December</textPath></text></svg>