<?xml version="1.0" encoding="utf-8" ?>
<svg baseProfile="full" height="200mm" version="1.1" viewBox="0,0,200,200" width="200mm" xmlns="http://www.w3.org/2000/svg" xmlns:ev="http://www.w3.org/2001/xml-events" xmlns:xlink="http://www.w3.org/1999/xlink"><defs /><rect fill="#1a1a1a" height="200" width="200" x="0" y="0" /><rect fill="#1a1a1a" height="200" width="180" x="10" y="0" /><text alignment-baseline="middle" fill="#e1ed5e" style="dominant-baseline: central; font-size:9.0px; font-family:Arial;" text-anchor="middle" x="100.0" y="100.0">2020</text><line stroke="#e1ed5e" stroke-width="0.3" x1="100.0" x2="100.0" y1="15.0" y2="10.0" /><path d="M 100.0 14.0 a86.0,86.0 0 0,1 42.35913384403234,11.155469271406648" fill="none" id="id25" stroke="none" /><text fill="#e1ed5e" style="font-size:6.75px; font-family:Arial;" text-anchor="middle"><textPath startOffset="22.145653131862478" xlink:href="#id25">January</textPath></text><line stroke="#e1ed5e" stroke-width="0.3" x1="143.13028292997686" x2="145.6673583964461" y1="26.7553504044142" y2="22.446841604673864" /><path d="M 143.63769802327073 25.89364864446614 a86.0,86.0 0 0,1 29.32050498858742,28.57503671076993" fill="none" id="id26" stroke="none" /><text fill="#e1ed5e" style="font-size:6.75px; font-family:Arial;" text-anchor="middle"><textPath startOffset="20.669276256404974" xlink:href="#id26">February</textPath></text><line stroke="#e1ed5e" stroke-width="0.3" x1="172.87174338648825" x2="177.1583165268699" y1="56.24261187166439" y2="53.66864786411523" /><path d="M 173.72905801456457 55.72781907015455 a86.0,86.0 0 0,1 12.242430191666344,42.057860355516425" fill="none" id="id27" stroke="none" /><text fill="#e1ed5e" style="font-size:6.75px; font-family:Arial;" text-anchor="middle"><textPath startOffset="22.145653131862474" xlink:href="#id27">March</textPath></text><line stroke="#e1ed5e" stroke-width="0.3" x1="184.99686870605535" x2="189.99668451229388" y1="99.2704041080226" y2="99.22748670261217" /><path d="M 185.99683186730306 99.26182062694052 a86.0,86.0 0 0,1 -10.086455211305974,41.156179273409016" fill="none" id="id28" stroke="none" /><text fill="#e1ed5e" style="font-size:6.75px; font-family:Arial;" text-anchor="middle"><textPath startOffset="21.40746469413373" xlink:href="#id28">April</textPath></text><line stroke="#e1ed5e" stroke-width="0.3" x1="174.33088141563837" x2="178.70328620479359" y1="141.23008692659167" y2="143.65538615756765" /><path d="M 175.20536237346943 141.71514677278685 a86.0,86.0 0 0,1 -30.301960400862466,31.631185727798858" fill="none" id="id29" stroke="none" /><text fill="#e1ed5e" style="font-size:6.75px; font-family:Arial;" text-anchor="middle"><textPath startOffset="22.145653131862474" xlink:href="#id29">May</textPath></text><line stroke="#e1ed5e" stroke-width="0.3" x1="143.1302829299769" x2="145.66735839644613" y1="173.24464959558577" y2="177.55315839532614" /><path d="M 143.63769802327073 174.10635135553383 a86.0,86.0 0 0,1 -40.68552437913181,11.842963189579606" fill="none" id="id30" stroke="none" /><text fill="#e1ed5e" style="font-size:6.75px; font-family:Arial;" text-anchor="middle"><textPath startOffset="21.407464694133747" xlink:href="#id30">June</textPath></text><path d="M 108.07796709384702 119.3841803445677 l 6.337738845550579 15.20826605650582 a37.47599132434428,37.47599132434428 0 0,0 -0.5959495292966911,0.2423674854366607 l -6.0757348550634465 -15.314820798521772" fill="red" stroke="none" /><path d="M 105.3480935250658 120.30758222061773 l 5.677906829906232 21.55993705961023 a43.295055774396495,43.295055774396495 0 0,0 -0.7203363484326348,0.18310668291819426 l -5.3069651882482 -21.654228974363697" fill="red" stroke="none" /><path d="M 101.44090949804482 120.95050786540614 l 1.859406753297503 27.035366109257886 a48.099232722271275,48.099232722271275 0 0,0 -0.8242276453906792,0.049583488408906716 l -1.3950347557743585 -27.063301575491483" fill="red" stroke="none" /><line stroke="#e1ed5e" stroke-width="0.3" x1="101.45913802915013" x2="101.54496967792366" y1="184.9874750549273" y2="189.98673829345242" /><path d="M 101.47630435890484 185.9873277026323 a86.0,86.0 0 0,1 -42.54439059252881,-10.42667462771756" fill="none" id="id31" stroke="none" /><text fill="#e1ed5e" style="font-size:6.75px; font-family:Arial;" text-anchor="middle"><textPath startOffset="22.145653131862474" xlink:href="#id31">July</textPath></text><path d="M 100.36049292484886 120.99690560180557 l 0.46449592991873345 27.054559245554422 a48.05854638446281,48.05854638446281 0 0,0 -0.8249888547675824,0.007081537102821339 l -3.3137162219312566e-15 -27.058546384462808" fill="red" stroke="none" /><path d="M 95.70440661134978 120.55596938700252 l -5.639286248454166 26.986026143455238 a48.568952762251485,48.568952762251485 0 0,0 -0.8146576451578467,-0.17755084207287328 l 6.101706310231149 -26.885243843248645" fill="red" stroke="none" /><line stroke="#e1ed5e" stroke-width="0.3" x1="58.13341422392154" x2="55.67067388415222" y1="173.97424548756322" y2="178.32567169271397" /><path d="M 57.64086615596768 174.84453072859336 a86.0,86.0 0 0,1 -31.369924170532247,-30.572349798747897" fill="none" id="id32" stroke="none" /><text fill="#e1ed5e" style="font-size:6.75px; font-family:Arial;" text-anchor="middle"><textPath startOffset="22.145653131862474" xlink:href="#id32">August</textPath></text><path d="M 86.68645165197938 116.24036423190432 l -17.19588717421776 20.976186340401764 a48.12377055454651,48.12377055454651 0 0,0 -0.6343759441144114,-0.5292189749425342 l 17.553437452494062 -20.67790518154736" fill="red" stroke="none" /><path d="M 86.40962598614128 116.0094264158162 l -3.7546110346219224 4.422922357949467 a26.80166753664444,26.80166753664444 0 0,0 -0.3481926133604826,-0.30076048641619213 l 3.8299831277452676 -4.357817739068553" fill="red" stroke="none" /><path d="M 82.18462484594161 111.11811171558189 l -12.403805681961929 7.740892127046042 a35.621074048045664,35.621074048045664 0 0,0 -0.3192870131594473,-0.5215313406453723 l 12.53486065957678 -7.526823670276112" fill="red" stroke="none" /><line stroke="#e1ed5e" stroke-width="0.3" x1="26.387840678322732" x2="22.057713659400548" y1="142.50000000000003" y2="145.00000000000006" /><path d="M 25.521815274538298 143.00000000000003 a86.0,86.0 0 0,1 -11.493303480769221,-40.785679425670985" fill="none" id="id33" stroke="none" /><text fill="#e1ed5e" style="font-size:6.75px; font-family:Arial;" text-anchor="middle"><textPath startOffset="21.40746469413373" xlink:href="#id33">September</textPath></text><path d="M 80.05021161711548 106.5578916946017 l -25.410927046168272 8.353076445220006 a47.7486279918312,47.7486279918312 0 0,0 -0.24928259053002566,-0.780874164340231 l 25.550574352475554 -7.915633247188383" fill="red" stroke="none" /><line stroke="#e1ed5e" stroke-width="0.3" x1="15.003131293944662" x2="10.003315487706104" y1="100.72959589197737" y2="100.7725132973878" /><path d="M 14.003168132696942 100.73817937305945 a86.0,86.0 0 0,1 10.791469493833604,-42.45332614584628" fill="none" id="id34" stroke="none" /><text fill="#e1ed5e" style="font-size:6.75px; font-family:Arial;" text-anchor="middle"><textPath startOffset="22.145653131862435" xlink:href="#id34">October</textPath></text><path d="M 79.0935383218832 98.0201363427161 l -26.80772105139151 -2.538719055449255 a47.92766240154761,47.92766240154761 0 0,0 0.08459827519866135,-0.8184115711783926 l 26.760190383711183 2.9985351489105603" fill="red" stroke="none" /><path d="M 79.73907114497095 94.47779374421319 l -10.892431951479693 -2.9687807648691864 a32.28976231138074,32.28976231138074 0 0,0 0.15034960235048275,-0.5335376981478211 l 10.83986385705463 3.1553263869200205" fill="red" stroke="none" /><path d="M 79.83685265289637 94.1308016681162 l -9.697480121689015 -2.8227951308340415 a31.09996500296976,31.09996500296976 0 0,0 0.1536096579936358,-0.5113165926271416 l 9.64759414369175 2.9888493270519065" fill="red" stroke="none" /><path d="M 80.68587082218212 91.75594674310238 l -57.94238753345363 -24.732159770692828 a84.0,84.0 0 0,0 0.5774644719320907,-1.3213517208965326 l 57.50928917950456 25.72317356136523" fill="red" stroke="none" /><path d="M 80.83023694016515 91.42560881287825 l -5.323964534376056 -2.381341618131405 a26.832271106999293,26.832271106999293 0 0,0 0.19167892901290315,-0.4188530524322526 l 5.282301140508107 2.4723836527783294" fill="red" stroke="none" /><path d="M 81.63589988554816 89.8137432299009 l -25.235406524851605 -13.997654606428602 a49.857582659595636,49.857582659595636 0 0,0 0.4215734848111115,-0.7448799532701132 l 24.991399675019125 14.428791329797821" fill="red" stroke="none" /><line stroke="#e1ed5e" stroke-width="0.3" x1="26.387840678322718" x2="22.05771365940052" y1="57.49999999999999" y2="54.99999999999999" /><path d="M 25.521815274538284 56.99999999999999 a86.0,86.0 0 0,1 29.574782752854787,-30.34633250058573" fill="none" id="id35" stroke="none" /><text fill="#e1ed5e" style="font-size:6.75px; font-family:Arial;" text-anchor="middle"><textPath startOffset="21.40746469413373" xlink:href="#id35">November</textPath></text><path d="M 84.83555147118756 85.47280134310135 l -15.519033847449688 -14.866883371108713 a42.49103610178992,42.49103610178992 0 0,0 0.5091097864756238,-0.5223914910482383 l 15.26153725982326 15.13109755422468" fill="red" stroke="none" /><line stroke="#e1ed5e" stroke-width="0.3" x1="56.869717070023135" x2="54.33264160355391" y1="26.7553504044142" y2="22.446841604673864" /><path d="M 56.362301976729285 25.89364864446614 a86.0,86.0 0 0,1 42.16139366436587,-11.88097634709845" fill="none" id="id36" stroke="none" /><text fill="#e1ed5e" style="font-size:6.75px; font-family:Arial;" text-anchor="middle"><textPath startOffset="22.145653131862474" xlink:href="#id36">December</textPath></text></svg>