<?xml version="1.0" encoding="utf-8" ?>
<svg baseProfile="full" height="200mm" version="1.1" viewBox="0,0,200,200" width="200mm" xmlns="http://www.w3.org/2000/svg" xmlns:ev="http://www.w3.org/2001/xml-events" xmlns:xlink="http://www.w3.org/1999/xlink"><defs /><rect fill="#1a1a1a" height="200" width="200" x="0" y="0" /><rect fill="#1a1a1a" height="200" width="180" x="10" y="0" /><text alignment-baseline="middle" fill="#e1ed5e" style="dominant-baseline: central; font-size:9.0px; font-family:Arial;" text-anchor="middle" x="100.0" y="100.0">2025</text><line stroke="#e1ed5e" stroke-width="0.3" x1="100.0" x2="100.0" y1="15.0" y2="10.0" /><path d="M 100.0 14.0 a86.0,86.0 0 0,1 42.46469731375804,11.215312516191453" fill="none" id="id85" stroke="none" /><text fill="#e1ed5e" style="font-size:6.75px; font-family:Arial;" text-anchor="middle"><textPath startOffset="22.20632615414155" xlink:href="#id85">January</textPath></text><path d="M 101.08401301168833 79.027996857942 l 0.4153264292880717 -8.035168476846195 a29.045895133182384,29.045895133182384 0 0,0 0.49908863283223903,0.03010638928437703 l -0.5535771109599226 8.026828818181514" fill="#ff3104" stroke="none" /><line stroke="#e1ed5e" stroke-width="0.3" x1="143.23703022742887" x2="145.7803849466894" y1="26.81831364943548" y2="22.513508569990506" /><path d="M 143.74570117128098 25.957352633546492 a86.0,86.0 0 0,1 28.547481713284135,27.462654790039103" fill="none" id="id86" stroke="none" /><text fill="#e1ed5e" style="font-size:6.75px; font-family:Arial;" text-anchor="middle"><textPath startOffset="19.985693538727396" xlink:href="#id86">February</textPath></text><line stroke="#e1ed5e" stroke-width="0.3" x1="172.23445277983987" x2="176.4835382374775" y1="55.19839476539836" y2="52.563006222186495" /><path d="M 173.08426987136738 54.67131705675599 a86.0,86.0 0 0,1 12.851231095245387,41.99856678651699" fill="none" id="id87" stroke="none" /><text fill="#e1ed5e" style="font-size:6.75px; font-family:Arial;" text-anchor="middle"><textPath startOffset="22.20632615414155" xlink:href="#id87">March</textPath></text><path d="M 118.03404312379186 89.2402003453031 l 6.909524752443723 -4.12248665122587 a29.045895133182384,29.045895133182384 0 0,0 0.25247843585294516,0.43156748896012853 l -6.979462862766995 4.002939749911846" fill="#ff3104" stroke="none" /><path d="M 120.18372546131832 94.20196356495316 l 7.71774477023467 -2.217022098322285 a29.02986745363421,29.02986745363421 0 0,0 0.13383215324841702,0.48146546177842137 l -7.75476369404945 2.083845333124912" fill="#ff3104" stroke="none" /><line stroke="#e1ed5e" stroke-width="0.3" x1="184.98032266829074" x2="189.97916517819016" y1="98.17113171792111" y2="98.06355123074" /><path d="M 185.9800911702706 98.14961562048488 a86.0,86.0 0 0,1 -9.607161424134198,41.387399972396054" fill="none" id="id88" stroke="none" /><text fill="#e1ed5e" style="font-size:6.75px; font-family:Arial;" text-anchor="middle"><textPath startOffset="21.466115282336823" xlink:href="#id88">April</textPath></text><path d="M 120.95626037817324 101.35467743843564 l 8.045131124396015 0.5200621402293185 a29.061922812730558,29.061922812730558 0 0,0 -0.036567429168749166,0.49893351804984326 l -8.034987136562927 -0.658468794775932" fill="#ff3104" stroke="none" /><line stroke="#e1ed5e" stroke-width="0.3" x1="174.80103733775053" x2="179.2010983576182" y1="140.37084112569926" y2="142.7455964860345" /><path d="M 175.68104954172406 140.8457921977663 a86.0,86.0 0 0,1 -30.038265399797805,32.042727171017184" fill="none" id="id89" stroke="none" /><text fill="#e1ed5e" style="font-size:6.75px; font-family:Arial;" text-anchor="middle"><textPath startOffset="22.206326154141568" xlink:href="#id89">May</textPath></text><path d="M 116.498646956653 112.99209946851258 l 6.3036273436032975 4.9638830187529415 a29.023456381814945,29.023456381814945 0 0,0 -0.31246112467550463,0.389843296126938 l -6.217248306872939 -5.071654148458129" fill="#ff3104" stroke="none" /><line stroke="#e1ed5e" stroke-width="0.3" x1="143.8653032363475" x2="146.44561519142675" y1="172.8068346515853" y2="177.08958963109032" /><path d="M 144.38136562736335 173.6633856474863 a86.0,86.0 0 0,1 -40.68145358897372,12.25698825130547" fill="none" id="id90" stroke="none" /><text fill="#e1ed5e" style="font-size:6.75px; font-family:Arial;" text-anchor="middle"><textPath startOffset="21.466115282336833" xlink:href="#id90">June</textPath></text><line stroke="#e1ed5e" stroke-width="0.3" x1="102.19456741930631" x2="102.32365962044197" y1="184.97166512339345" y2="189.96999836594603" /><path d="M 102.22038585953345 185.97133177190398 a86.0,86.0 0 0,1 -42.740103519485714,-10.115201625700543" fill="none" id="id91" stroke="none" /><text fill="#e1ed5e" style="font-size:6.75px; font-family:Arial;" text-anchor="middle"><textPath startOffset="22.20632615414155" xlink:href="#id91">July</textPath></text><line stroke="#e1ed5e" stroke-width="0.3" x1="58.666819895761336" x2="56.23545636021788" y1="174.27360380694188" y2="178.64263932499728" /><path d="M 58.180547188652646 175.14741091055294 a86.0,86.0 0 0,1 -31.652253787137756,-30.449443065178592" fill="none" id="id92" stroke="none" /><text fill="#e1ed5e" style="font-size:6.75px; font-family:Arial;" text-anchor="middle"><textPath startOffset="22.20632615414155" xlink:href="#id92">August</textPath></text><path d="M 89.7882731507175 118.34994917583269 l -2.3537345830131895 4.229540273565632 a25.84035922354797,25.84035922354797 0 0,0 -0.3868070850057743,-0.21963915791108404 l 2.426190434940171 -4.188397949859914" fill="#ff0000" stroke="none" /><path d="M 89.1626897886671 117.98757091392108 l -4.152183880292913 6.891719489242409 a29.045895133182384,29.045895133182384 0 0,0 -0.4260352313145285,-0.26170563573769473 l 4.27019831153975 -6.819225386676337" fill="#ff3104" stroke="none" /><path d="M 87.95078237400918 117.19931262002967 l -4.6165114978864255 6.589707890646626 a29.045895133182384,29.045895133182384 0 0,0 -0.4070196750410757,-0.2903977310991765 l 4.729258500776388 -6.509265897703231" fill="#ff3104" stroke="none" /><path d="M 87.36589467227662 116.77436683061367 l -4.830961484612974 6.414092488974568 a29.02986745363421,29.02986745363421 0 0,0 -0.39656357086140914,-0.30406803579836594 l 4.94065378396787 -6.329985111348835" fill="#ff3104" stroke="none" /><path d="M 86.79598089348748 116.32954008644616 l -5.048882060978532 6.244002022522344 a29.02986745363421,29.02986745363421 0 0,0 -0.38586205574750665,-0.31753820252518306 l 5.155614245270728 -6.15616870113998" fill="#ff3104" stroke="none" /><path d="M 85.97065885151581 115.62618273729859 l -3.6619696283981935 4.078780748586345 a26.48146640547485,26.48146640547485 0 0,0 -0.3365673959237901,-0.30744633624044543 l 3.731636573788838 -4.015141645759323" fill="#ff0a01" stroke="none" /><path d="M 84.67929136418377 114.36230785411682 l -5.869943573800913 5.5027439459383665 a29.045895133182384,29.045895133182384 0 0,0 -0.33880458789773327,-0.3677054654442039 l 5.963794569694375 -5.400887225692818" fill="#ff3104" stroke="none" /><path d="M 83.95833913139862 113.55231037782056 l -6.133924310048561 5.182059810686214 a29.02986745363421,29.02986745363421 0 0,0 -0.3191958341716466,-0.384491944747998 l 6.2222161441137445 -5.075706608824455" fill="#ff3104" stroke="none" /><path d="M 82.24976979558568 111.22182372390057 l -6.787237895854356 4.290940813855686 a29.02986745363421,29.02986745363421 0 0,0 -0.26339125026998444,-0.4246705610350736 l 6.860093785792296 -4.173473921455348" fill="#ff3104" stroke="none" /><line stroke="#e1ed5e" stroke-width="0.3" x1="26.63291911575756" x2="22.317208475507996" y1="142.92168965132927" y2="145.44649492493687" /><path d="M 25.769776987707644 143.4266507060508 a86.0,86.0 0 0,1 -11.730757126820373,-40.83630448921669" fill="none" id="id93" stroke="none" /><text fill="#e1ed5e" style="font-size:6.75px; font-family:Arial;" text-anchor="middle"><textPath startOffset="21.46611528233685" xlink:href="#id93">September</textPath></text><path d="M 80.0844068197444 106.66101706037122 l -7.628897817567067 2.5515794611140397 a29.04429236522757,29.04429236522757 0 0,0 -0.1544986914735956,-0.4754980792634059 l 7.671688760056912 -2.4198824818728304" fill="#ff3104" stroke="none" /><path d="M 79.86692584326677 105.97154293290107 l -7.71220641559855 2.287468439226894 a29.04429236522757,29.04429236522757 0 0,0 -0.13803972545154397,-0.4805343934074884 l 7.750438777936199 -2.1543765703148097" fill="#ff3104" stroke="none" /><path d="M 79.0235259727143 100.99374915477108 l -8.030477552664799 0.3804395471797693 a29.039484061363115,29.039484061363115 0 0,0 -0.01935670666479195,-0.49951058942565457 l 8.035836392180792 -0.24215171074011796" fill="#ff3104" stroke="none" /><line stroke="#e1ed5e" stroke-width="0.3" x1="15.007084014347285" x2="10.007500721073583" y1="101.09737516637583" y2="101.16192664675087" /><path d="M 14.007167355692545 101.11028546245083 a86.0,86.0 0 0,1 10.666146001902534,-42.60595125391555" fill="none" id="id94" stroke="none" /><text fill="#e1ed5e" style="font-size:6.75px; font-family:Arial;" text-anchor="middle"><textPath startOffset="22.20632615414155" xlink:href="#id94">October</textPath></text><path d="M 79.12142395522702 97.74499172005258 l -7.996186017198273 -0.863634839757003 a29.042689597272748,29.042689597272748 0 0,0 0.05796042232609721,-0.49656950265657995 l 7.980135241868586 1.0011480807384447" fill="#ff3104" stroke="none" /><path d="M 79.32604984820605 96.31383870115002 l -62.021850455381816 -11.05848389654995 a84.0,84.0 0 0,0 0.2660571043605535,-1.4212876901497093 l 61.8223076271114 12.124449664162231" fill="#4dd2ff" stroke="none" /><line stroke="#e1ed5e" stroke-width="0.3" x1="26.266209847984243" x2="21.928928074336255" y1="57.711370442889674" y2="55.22380399835377" /><path d="M 25.398753493254645 57.213857153982495 a86.0,86.0 0 0,1 29.58750427330803,-30.492523968695096" fill="none" id="id95" stroke="none" /><text fill="#e1ed5e" style="font-size:6.75px; font-family:Arial;" text-anchor="middle"><textPath startOffset="21.46611528233685" xlink:href="#id95">November</textPath></text><line stroke="#e1ed5e" stroke-width="0.3" x1="56.762969772571076" x2="54.21961505331055" y1="26.818313649435495" y2="22.513508569990535" /><path d="M 56.25429882871897 25.957352633546506 a86.0,86.0 0 0,1 42.265352541879196,-11.944610805530505" fill="none" id="id96" stroke="none" /><text fill="#e1ed5e" style="font-size:6.75px; font-family:Arial;" text-anchor="middle"><textPath startOffset="22.20632615414155" xlink:href="#id96">December</textPath></text></svg>